<svg width="400" height="400" viewBox="0 0 400 400" fill="none" xmlns="http://www.w3.org/2000/svg">
<g clip-path="url(#clip0_12_8)">
<path d="M400 0H0V400H400V0Z" fill="black"/>
<path d="M115.5 191H70.6136V45.5455H117.489C131.598 45.5455 143.672 48.4574 153.71 54.2812C163.748 60.0578 171.442 68.3674 176.793 79.2102C182.143 90.0057 184.818 102.932 184.818 117.989C184.818 133.14 182.119 146.185 176.722 157.122C171.324 168.012 163.464 176.393 153.142 182.264C142.82 188.088 130.273 191 115.5 191ZM88.2273 175.375H114.364C126.39 175.375 136.357 173.055 144.264 168.415C152.171 163.775 158.066 157.17 161.949 148.599C165.831 140.029 167.773 129.826 167.773 117.989C167.773 106.246 165.855 96.1373 162.02 87.6619C158.185 79.1392 152.455 72.6051 144.832 68.0597C137.209 63.4669 127.716 61.1705 116.352 61.1705H88.2273V175.375ZM214.364 191V45.5455H265.216C275.348 45.5455 283.705 47.2973 290.287 50.8011C296.868 54.2576 301.769 58.9214 304.989 64.7926C308.208 70.6165 309.818 77.0795 309.818 84.1818C309.818 90.4318 308.705 95.5928 306.48 99.6648C304.302 103.737 301.414 106.956 297.815 109.324C294.264 111.691 290.405 113.443 286.239 114.58V116C290.689 116.284 295.164 117.847 299.662 120.688C304.16 123.528 307.924 127.6 310.955 132.903C313.985 138.206 315.5 144.693 315.5 152.364C315.5 159.655 313.843 166.213 310.528 172.037C307.214 177.861 301.982 182.477 294.832 185.886C287.683 189.295 278.379 191 266.92 191H214.364ZM231.977 175.375H266.92C278.426 175.375 286.594 173.15 291.423 168.699C296.3 164.201 298.739 158.756 298.739 152.364C298.739 147.439 297.484 142.894 294.974 138.727C292.465 134.513 288.89 131.152 284.25 128.642C279.61 126.085 274.117 124.807 267.773 124.807H231.977V175.375ZM231.977 109.466H264.648C269.951 109.466 274.733 108.424 278.994 106.341C283.303 104.258 286.712 101.322 289.222 97.5341C291.778 93.7462 293.057 89.2955 293.057 84.1818C293.057 77.7898 290.831 72.3684 286.381 67.9176C281.93 63.4195 274.875 61.1705 265.216 61.1705H231.977V109.466Z" fill="white"/>
<path d="M70.6136 355V209.545H88.2273V339.375H155.841V355H70.6136Z" fill="white"/>
<path d="M142 339H316V355H142V339Z" fill="white"/>
<path fill-rule="evenodd" clip-rule="evenodd" d="M194.882 221C210.775 240.384 218.52 257.989 218.118 273.814C218.047 276.621 217.722 279.434 217.143 282.253L223.85 289.31L223.383 307.731L208.034 303.123L177.604 302.349L162 306.183L162.468 287.762L169.562 281.019C169.115 278.182 168.926 275.365 168.997 272.568C169.399 256.743 178.027 239.553 194.882 221ZM201.432 307.382L210.115 307.602V326.369H205.117H201.432V307.382ZM188.406 307.051L197.09 307.272L196.539 328.98L187.855 328.76L188.406 307.051ZM175.381 306.721L184.065 306.941V326.369H175.381V306.721ZM189.225 262.329C186.618 264.808 188.27 256.708 190.749 259.316C193.227 261.924 184.549 263.591 187.156 261.112C189.764 258.633 193.227 257.134 190.749 254.526C192.545 257.52 193.655 258.119 189.225 262.329Z" fill="white"/>
<path d="M203.93 251H184.93V282H203.93V251Z" fill="white"/>
</g>
<defs>
<clipPath id="clip0_12_8">
<rect width="400" height="400" fill="white"/>
</clipPath>
</defs>
</svg>
