<svg width="103" height="138" viewBox="0 0 103 138" fill="none" xmlns="http://www.w3.org/2000/svg">
<path d="M44.042 137.982C40.3007 137.982 36.6813 136.437 33.184 133.346C29.768 130.255 26.8807 125.782 24.522 119.926C22.2447 114.07 20.9027 106.994 20.496 98.698C17.9747 98.942 15.6567 99.064 13.542 99.064C8.82467 99.064 5.368 98.454 3.172 97.234C1.05734 96.014 2.2687e-06 94.428 2.2687e-06 92.476C2.2687e-06 90.524 0.935336 88.3687 2.806 86.01C4.67667 83.6513 7.27934 81.2927 10.614 78.934C13.9487 76.494 17.8527 74.298 22.326 72.346C23.8713 64.05 26.352 55.1033 29.768 45.506C33.2653 35.8273 37.942 25.5793 43.798 14.762C44.3673 13.7047 45.2213 13.176 46.36 13.176C47.092 13.176 47.7427 13.42 48.312 13.908C48.8813 14.396 49.166 15.0467 49.166 15.86C49.166 16.2667 49.044 16.7953 48.8 17.446C43.5947 27.938 39.2433 37.576 35.746 46.36C32.33 55.0627 29.646 63.0333 27.694 70.272C31.354 68.8893 35.258 67.7507 39.406 66.856C43.554 65.9613 47.7833 65.4327 52.094 65.27C53.2327 65.27 53.802 65.4327 53.802 65.758C53.802 66.0833 53.3953 66.4087 52.582 66.734C51.85 66.978 50.5893 67.1407 48.8 67.222C44.8147 67.466 40.992 68.0353 37.332 68.93C33.7533 69.7433 30.378 70.76 27.206 71.98C25.986 76.6973 25.0507 81.0893 24.4 85.156C23.7493 89.1413 23.3427 92.842 23.18 96.258C31.5573 94.4687 39.162 91.866 45.994 88.45C52.9073 84.9527 59.0073 80.9267 64.294 76.372C69.5807 71.8173 74.0133 67.1 77.592 62.22C79.8693 59.1293 81.496 56.4047 82.472 54.046C83.5293 51.606 84.058 49.4913 84.058 47.702C84.058 45.0993 83.2447 43.066 81.618 41.602C79.9913 40.0567 77.836 38.9587 75.152 38.308C72.468 37.576 69.54 37.21 66.368 37.21C63.0333 37.21 59.658 37.5353 56.242 38.186C52.826 38.7553 49.7353 39.5687 46.97 40.626C46.3193 40.7887 45.872 40.87 45.628 40.87C44.5707 40.87 44.042 40.504 44.042 39.772C44.042 39.04 44.4893 38.4707 45.384 38.064C55.388 32.3707 62.5047 27.206 66.734 22.57C70.9633 17.934 73.078 14.03 73.078 10.858C73.078 8.09266 71.7767 5.97799 69.174 4.51399C66.6527 2.96866 63.318 2.19599 59.17 2.19599C55.9167 2.19599 52.2567 2.72466 48.19 3.78199C44.1233 4.83933 39.9347 6.54733 35.624 8.90599C32.0453 10.858 28.792 13.176 25.864 15.86C23.0173 18.4627 20.5773 21.1873 18.544 24.034C16.592 26.7993 15.128 29.4427 14.152 31.964C13.176 34.404 12.81 36.478 13.054 38.186C13.054 38.3487 13.054 38.552 13.054 38.796C13.1353 38.9587 13.176 39.1213 13.176 39.284C13.176 41.3173 12.566 42.334 11.346 42.334C10.7767 42.334 10.1667 41.9273 9.516 41.114C8.94667 40.3007 8.662 39.0807 8.662 37.454C8.662 35.014 9.394 32.4113 10.858 29.646C12.4033 26.8807 14.4367 24.1153 16.958 21.35C19.5607 18.5033 22.448 15.86 25.62 13.42C28.792 10.8987 32.086 8.74332 35.502 6.95399C39.894 4.59532 44.2047 2.84666 48.434 1.70799C52.7447 0.569323 56.6893 -1.04904e-05 60.268 -1.04904e-05C65.2293 -1.04904e-05 69.2553 0.975989 72.346 2.92799C75.4367 4.87999 76.982 7.60466 76.982 11.102C76.982 14.3553 75.396 18.1373 72.224 22.448C69.052 26.7587 63.7247 31.5167 56.242 36.722C58.7633 36.3153 61.122 36.0307 63.318 35.868C65.514 35.624 67.5473 35.502 69.418 35.502C76.4127 35.502 81.4553 36.6813 84.546 39.04C87.718 41.3173 89.304 44.286 89.304 47.946C89.304 50.63 88.5313 53.558 86.986 56.73C85.522 59.8207 83.448 63.0333 80.764 66.368C76.86 71.1667 71.9393 75.8027 66.002 80.276C60.146 84.7493 53.558 88.6127 46.238 91.866C38.9993 95.1193 31.2727 97.3153 23.058 98.454C22.8953 105.693 23.546 111.671 25.01 116.388C26.5553 121.105 28.5073 124.765 30.866 127.368C33.2247 130.052 35.5833 131.923 37.942 132.98C40.3007 134.119 42.2527 134.688 43.798 134.688C44.9367 134.688 45.7093 134.485 46.116 134.078C46.4413 133.671 46.9293 133.468 47.58 133.468C48.2307 133.468 48.8407 133.712 49.41 134.2C49.9793 134.688 50.264 135.217 50.264 135.786C50.264 136.274 49.9793 136.64 49.41 136.884C47.6207 137.616 45.8313 137.982 44.042 137.982ZM14.03 97.478C14.9247 97.478 15.9007 97.3967 16.958 97.234C18.0153 97.1527 19.154 97.0307 20.374 96.868C20.2927 93.452 20.374 89.8733 20.618 86.132C20.862 82.3907 21.3093 78.4867 21.96 74.42C16.7547 77.104 12.6473 80.1133 9.638 83.448C6.62867 86.7013 5.124 89.5887 5.124 92.11C5.124 93.6553 5.856 94.916 7.32 95.892C8.784 96.9493 11.0207 97.478 14.03 97.478ZM95.5584 93.94C94.9891 94.184 94.3384 93.8587 93.6064 92.964C92.9557 92.0693 92.6304 91.1747 92.6304 90.28C92.6304 89.4667 92.9557 88.7753 93.6064 88.206C94.2571 87.6367 94.6637 87.3113 94.8264 87.23C95.1517 86.8233 95.8837 86.2947 97.0224 85.644C98.2424 84.912 99.3811 84.302 100.438 83.814C101.577 83.326 102.187 83.2447 102.268 83.57C102.431 83.8953 102.309 84.18 101.902 84.424C101.577 84.5867 101.13 85.0747 100.56 85.888C99.9911 86.62 99.4217 88.0027 98.8524 90.036C98.6084 90.768 98.2831 91.5 97.8764 92.232C97.4697 92.8827 96.6971 93.452 95.5584 93.94Z" fill="white"/>
</svg>
