<svg width="308" height="72" viewBox="0 0 308 72" fill="none" xmlns="http://www.w3.org/2000/svg">
<path d="M0 70.9961V0.976562H39.4043V6.98242H6.29883V33.0078H33.1055V39.0137H6.29883V64.9902H39.4043V70.9961H0ZM57.4609 70.9961V68.0176L88.6621 6.98242H58.4375V0.976562H96.8652V4.00391L65.6641 64.9902H96.8652V70.9961H57.4609ZM118.926 70.9961V0.976562H158.33V6.98242H125.225V33.0078H152.031V39.0137H125.225V64.9902H158.33V70.9961H118.926ZM195.381 55.6152L195.576 58.2031L195.771 55.6152L211.299 0.976562H217.793L197.188 70.9961H193.867L173.359 0.976562H179.902L195.381 55.6152ZM236.777 70.9961V0.976562H243.076V70.9961H236.777ZM307.52 54.7852C307.52 57.1615 307.064 59.3913 306.152 61.4746C305.273 63.5579 304.053 65.3809 302.49 66.9434C300.928 68.5059 299.105 69.7428 297.021 70.6543C294.938 71.5332 292.708 71.9727 290.332 71.9727H285.352C282.975 71.9727 280.729 71.5332 278.613 70.6543C276.53 69.7428 274.707 68.5059 273.145 66.9434C271.582 65.3809 270.345 63.5579 269.434 61.4746C268.555 59.3913 268.115 57.1615 268.115 54.7852V17.1875C268.115 14.8112 268.555 12.5814 269.434 10.498C270.345 8.41471 271.582 6.5918 273.145 5.0293C274.707 3.4668 276.53 2.24609 278.613 1.36719C280.729 0.455729 282.975 0 285.352 0H290.332C292.708 0 294.938 0.455729 297.021 1.36719C299.105 2.24609 300.928 3.4668 302.49 5.0293C304.053 6.5918 305.273 8.41471 306.152 10.498C307.064 12.5814 307.52 14.8112 307.52 17.1875V54.7852ZM301.221 17.1875C301.221 15.625 300.928 14.1764 300.342 12.8418C299.756 11.4746 298.958 10.2865 297.949 9.27734C296.94 8.26823 295.752 7.4707 294.385 6.88477C293.05 6.29883 291.602 6.00586 290.039 6.00586H285.645C284.082 6.00586 282.617 6.29883 281.25 6.88477C279.915 7.4707 278.727 8.26823 277.686 9.27734C276.676 10.2865 275.879 11.4746 275.293 12.8418C274.707 14.1764 274.414 15.625 274.414 17.1875V54.7852C274.414 56.3477 274.707 57.8125 275.293 59.1797C275.879 60.5143 276.676 61.7025 277.686 62.7441C278.727 63.7533 279.915 64.5508 281.25 65.1367C282.617 65.7227 284.082 66.0156 285.645 66.0156H290.039C291.602 66.0156 293.05 65.7227 294.385 65.1367C295.752 64.5508 296.94 63.7533 297.949 62.7441C298.958 61.7025 299.756 60.5143 300.342 59.1797C300.928 57.8125 301.221 56.3477 301.221 54.7852V17.1875Z" fill="white"/>
</svg>
