<svg width="226" height="59" viewBox="0 0 226 59" fill="none" xmlns="http://www.w3.org/2000/svg">
<path d="M0 59V-3.33786e-06H3V59H0ZM12 59V-3.33786e-06H18V59H12ZM21 59V-3.33786e-06H24V59H21ZM33.0078 59V-3.33786e-06H42.0078V59H33.0078ZM45.0078 59V-3.33786e-06H51.0078V59H45.0078ZM60.0078 59V-3.33786e-06H63.0078V59H60.0078ZM66.0156 59V-3.33786e-06H69.0156V59H66.0156ZM78.0156 59V-3.33786e-06H84.0156V59H78.0156ZM87.0156 59V-3.33786e-06H90.0156V59H87.0156ZM99.0234 59V-3.33786e-06H108.023V59H99.0234ZM111.023 59V-3.33786e-06H114.023V59H111.023ZM117.023 59V-3.33786e-06H123.023V59H117.023ZM132.031 59V-3.33786e-06H138.031V59H132.031ZM147.031 59V-3.33786e-06H150.031V59H147.031ZM159.031 59V-3.33786e-06H162.031V59H159.031ZM165.039 59V-3.33786e-06H168.039V59H165.039ZM177.039 59V-3.33786e-06H186.039V59H177.039ZM189.039 59V-3.33786e-06H195.039V59H189.039ZM198.047 59V-3.33786e-06H204.047V59H198.047ZM207.047 59V-3.33786e-06H213.047V59H207.047ZM219.047 59V-3.33786e-06H225.047V59H219.047Z" fill="white"/>
</svg>
