<svg width="348" height="76" viewBox="0 0 348 76" fill="none" xmlns="http://www.w3.org/2000/svg">
<path d="M9.2 71.4V59.3H44.5V71.4H9.2ZM9.2 13.5V1.4H44.5V13.5H9.2ZM9.2 40.2V28.3H42.5V40.2H9.2ZM-5.60284e-06 1.4H13.8V71.4H-5.60284e-06V1.4ZM55.9937 14.3V1.4H109.094L74.7937 58.9H105.994V71.4H52.0937L85.9937 14.3H55.9937ZM127.364 71.4V59.3H162.664V71.4H127.364ZM127.364 13.5V1.4H162.664V13.5H127.364ZM127.364 40.2V28.3H160.664V40.2H127.364ZM118.164 1.4H131.964V71.4H118.164V1.4ZM204.758 47L223.658 1.4H240.258L204.758 75.5L169.258 1.4H185.758L204.758 47ZM247.852 1.4H262.352V71.4H247.852V1.4ZM288.541 36.4C288.541 40.8667 289.475 44.8333 291.341 48.3C293.208 51.7667 295.775 54.5 299.041 56.5C302.308 58.5 306.108 59.5 310.441 59.5C314.775 59.5 318.575 58.5 321.841 56.5C325.108 54.5 327.641 51.7667 329.441 48.3C331.308 44.8333 332.241 40.8667 332.241 36.4C332.241 31.9333 331.341 27.9667 329.541 24.5C327.741 21.0333 325.208 18.3 321.941 16.3C318.675 14.3 314.841 13.3 310.441 13.3C306.108 13.3 302.308 14.3 299.041 16.3C295.775 18.3 293.208 21.0333 291.341 24.5C289.475 27.9667 288.541 31.9333 288.541 36.4ZM273.441 36.4C273.441 31.0667 274.375 26.2 276.241 21.8C278.108 17.3333 280.708 13.4667 284.041 10.2C287.375 6.93334 291.275 4.43334 295.741 2.70001C300.275 0.900005 305.175 4.52995e-06 310.441 4.52995e-06C315.775 4.52995e-06 320.675 0.900005 325.141 2.70001C329.608 4.43334 333.508 6.93334 336.841 10.2C340.241 13.4667 342.841 17.3333 344.641 21.8C346.508 26.2 347.441 31.0667 347.441 36.4C347.441 41.6667 346.508 46.5667 344.641 51.1C342.841 55.5667 340.275 59.4667 336.941 62.8C333.675 66.1333 329.775 68.7333 325.241 70.6C320.775 72.4 315.841 73.3 310.441 73.3C305.041 73.3 300.075 72.4 295.541 70.6C291.075 68.7333 287.175 66.1333 283.841 62.8C280.508 59.4667 277.941 55.5667 276.141 51.1C274.341 46.5667 273.441 41.6667 273.441 36.4Z" fill="white"/>
</svg>
