<?xml version="1.0" encoding="UTF-8"?>
<svg version="1.1" xmlns="http://www.w3.org/2000/svg" width="322" height="332">
<path d="M0 0 C2.31434837 2.59155444 3.33984375 3.90462559 3.33984375 7.4453125 C5.76826487 6.00023092 8.18302057 4.54636406 10.55859375 3.015625 C27.69238502 -7.83968796 46.60187338 -10.80078354 66.33984375 -6.5546875 C85.1851391 -1.91507504 101.64114225 8.10604674 111.83984375 24.91796875 C120.24222734 40.69744507 120.78143155 58.06096785 116.38745117 75.14916992 C115.17821092 79.02882661 113.87473199 82.86211061 112.52734375 86.6953125 C112.00823016 88.20892331 111.49029659 89.72293921 110.97338867 91.23730469 C109.46693379 95.63233938 107.93716341 100.01896978 106.40270996 104.40429688 C105.26247249 107.66668298 104.12737071 110.93082498 102.99316406 114.1953125 C93.80120846 140.64303155 84.49524762 167.0505712 75.15234375 193.4453125 C74.80296753 194.43321777 74.45359131 195.42112305 74.09362793 196.43896484 C70.81395961 205.71089015 67.5246601 214.97795077 64.13671875 224.2109375 C63.66154406 225.51296303 63.18652131 226.81504403 62.71166992 228.1171875 C61.885181 230.37581543 61.05049381 232.63147569 60.2043457 234.8828125 C56.82642734 244.12490716 53.51003295 253.95404226 57.33984375 263.4453125 C60.01505347 267.14339653 61.61173874 268.24786029 66.02734375 269.4453125 C76.08937118 270.02943769 84.03538833 264.86971305 91.33984375 258.4453125 C94.36950704 255.32783289 96.88151255 252.02688921 99.33984375 248.4453125 C100.03464844 247.43597656 100.72945312 246.42664063 101.4453125 245.38671875 C107.36980195 236.32752286 111.46784944 226.55008846 115.53442383 216.54492188 C119.34872399 207.17187839 122.20231832 200.21152128 131.08984375 194.7578125 C138.46027734 191.78129124 145.83083507 191.87180248 153.33984375 194.4453125 C157.83108872 196.68746416 161.33670652 199.13819429 164.40234375 203.1328125 C166.85527086 211.79982164 165.20707541 219.49868879 161.83984375 227.6328125 C161.47890625 228.53845947 161.11796875 229.44410645 160.74609375 230.37719727 C157.39168284 238.64020035 153.56404547 246.59678333 149.33984375 254.4453125 C149.0257959 255.0439209 148.71174805 255.6425293 148.38818359 256.25927734 C143.65529454 265.25201165 138.05326755 273.15267562 131.57373047 280.95751953 C130.52496263 282.2221003 129.49479228 283.50206789 128.46875 284.78515625 C123.76822618 290.47763714 118.17477789 294.95752588 112.33984375 299.4453125 C111.54707031 300.06535156 110.75429688 300.68539063 109.9375 301.32421875 C91.54868617 315.00109027 68.55767822 320.50616455 45.90234375 317.7578125 C39.72483489 316.6831537 34.0661963 314.9912979 28.33984375 312.4453125 C26.98439453 311.84783203 26.98439453 311.84783203 25.6015625 311.23828125 C11.9057163 304.5162747 3.49816104 293.48963731 -1.66015625 279.4453125 C-9.78637317 254.01279297 -1.17766471 229.40089383 7.33984375 205.4453125 C7.84478923 204.02053002 8.34967042 202.59572475 8.85449219 201.17089844 C11.49114958 193.73822843 14.14606061 186.31218621 16.81088257 178.88957214 C20.60281345 168.32521045 24.36350898 157.75010876 28.10546875 147.16796875 C28.35637142 146.45846069 28.60727409 145.74895264 28.86577988 145.01794434 C31.14093878 138.58353277 33.41475682 132.14864776 35.68731689 125.71331787 C37.10990517 121.68495088 38.53330726 117.65687198 39.95703125 113.62890625 C40.18496494 112.98375061 40.41289864 112.33859497 40.64773941 111.67388916 C44.25713001 101.46041495 47.91089684 91.26338301 51.61837769 81.08506775 C51.96361481 80.13281815 52.30885193 79.18056854 52.66455078 78.19946289 C53.11606003 76.95997643 53.11606003 76.95997643 53.57669067 75.69544983 C55.97201776 68.63288917 56.77450776 60.33956629 54.65625 53.11328125 C51.97115803 47.99935089 47.69191075 45.22933483 42.33984375 43.4453125 C29.03881755 42.3649362 17.78797849 44.98544221 7.33984375 53.4453125 C-1.80458154 61.43011864 -6.20685881 70.05628611 -10.22265625 81.3828125 C-10.68013349 82.65220957 -11.13816761 83.92140604 -11.59667969 85.19042969 C-17.52512413 101.66531864 -23.26678847 118.20869429 -29.04882812 134.73535156 C-34.05854876 149.05207668 -39.10278712 163.35511315 -44.22265625 177.6328125 C-49.53350948 192.44526364 -54.77807909 207.28008085 -59.99133301 222.12716675 C-63.1708042 231.17929805 -66.35791898 240.22874148 -69.54516602 249.27813721 C-70.62165112 252.33593711 -71.69666557 255.39425079 -72.77148438 258.45263672 C-74.37033333 262.99931897 -75.97745041 267.54299472 -77.59127808 272.0843811 C-78.16752675 273.70969328 -78.7411452 275.33594101 -79.3117981 276.96322632 C-89.96991878 307.33688143 -89.96991878 307.33688143 -104.08984375 315.21875 C-111.41088212 318.71237621 -118.75366065 319.26009203 -126.66015625 317.4453125 C-135.45172421 314.14174902 -140.42922649 310.52248784 -145.41015625 302.6953125 C-150.71217031 288.91007594 -144.03217605 275.18816063 -139.28308105 262.14071655 C-137.96336328 258.51433428 -136.65703964 254.88316389 -135.34970093 251.25230408 C-134.62687264 249.2449696 -133.90340503 247.23786525 -133.17935181 245.23097229 C-130.24202831 237.08372963 -127.33734448 228.9251357 -124.4453125 220.76171875 C-124.22158211 220.13022856 -123.99785172 219.49873837 -123.76734161 218.84811211 C-122.61678949 215.60027428 -121.46661548 212.35230268 -120.31658936 209.10427856 C-112.9962915 188.4311289 -105.63860296 167.77188035 -98.22265625 147.1328125 C-91.33290034 127.95657864 -84.50780462 108.75814355 -77.71585464 89.54711151 C-76.73269223 86.7666833 -75.74895796 83.98645758 -74.76520634 81.20623779 C-70.49096942 69.12626825 -66.21894223 57.04558521 -61.97483826 44.95498657 C-60.50409119 40.76766396 -59.02856877 36.58203428 -57.55209351 32.39672852 C-56.88514794 30.50206913 -56.22053528 28.60658657 -55.5585022 26.71020508 C-45.96526113 -0.76685534 -45.96526113 -0.76685534 -35.28515625 -6.3046875 C-23.41436294 -10.3980645 -9.41531416 -8.81716479 0 0 Z " fill="#FCFCFD" transform="translate(152.66015625,11.5546875)"/>
</svg>
