<svg width="399" height="339" viewBox="0 0 399 339" fill="none" xmlns="http://www.w3.org/2000/svg">
<path d="M0 0C131.67 0 263.34 0 399 0C397.848 3.43838 396.898 5.82451 395.108 8.85028C394.641 9.64642 394.174 10.4425 393.693 11.2628C393.189 12.1117 392.686 12.9606 392.168 13.8352C391.097 15.6573 390.029 17.4815 388.963 19.3056C388.691 19.7689 388.419 20.2322 388.14 20.7096C385.438 25.3275 382.821 29.991 380.212 34.6609C376.183 41.8556 372.061 48.9901 367.871 56.0931C364.35 62.0648 360.89 68.0692 357.474 74.1012C357.115 74.7309 356.757 75.36 356.387 76.0086C356.077 76.557 355.766 77.1061 355.446 77.6708C354.974 78.4405 354.974 78.4405 354.493 79.225C354.19 79.7609 353.888 80.2968 353.576 80.8499C352.151 82.3318 352.151 82.3318 349.916 82.7318C348.996 82.7373 348.076 82.7435 347.128 82.7489C346.614 82.7559 346.099 82.7637 345.569 82.7707C343.833 82.7916 342.098 82.7901 340.361 82.7893C339.108 82.7994 337.855 82.8111 336.603 82.8235C333.152 82.8546 329.7 82.8662 326.248 82.8748C322.529 82.8864 318.81 82.9167 315.091 82.9439C306.104 83.0052 297.118 83.0363 288.13 83.0643C283.9 83.0775 279.669 83.0946 275.438 83.1109C261.375 83.1637 247.312 83.2087 233.249 83.2313C229.598 83.2367 225.948 83.2429 222.298 83.2491C220.937 83.2515 220.937 83.2515 219.548 83.2538C204.85 83.2794 190.153 83.3579 175.455 83.4588C160.368 83.5614 145.282 83.6173 130.196 83.6274C121.723 83.6344 113.252 83.6616 104.78 83.7408C97.5645 83.8084 90.3505 83.8332 83.1341 83.8029C79.4525 83.789 75.7734 83.7952 72.0918 83.855C50.5526 84.189 50.5526 84.189 45.711 81.1124C42.8847 78.2813 41.3315 75.2513 40.2123 71.4578C39.3418 69.5765 38.4363 67.4468 37.1958 65.5535C36.4265 64.2539 35.659 62.9533 34.893 61.6518C34.0228 60.1802 33.1525 58.7087 32.2821 57.2372C31.8483 56.5025 31.4145 55.7677 30.9676 55.0106C28.8985 51.5087 26.8204 48.0121 24.7423 44.5155C24.3321 43.8249 23.9219 43.1344 23.4992 42.423C20.3002 37.0386 17.0987 31.6557 13.8946 26.2743C13.0874 24.918 12.2812 23.561 11.475 22.2039C9.2333 18.4353 6.98711 14.6718 4.67273 10.9469C4.33781 10.4051 4.00288 9.86335 3.65781 9.30521C2.81033 7.94044 1.95459 6.58072 1.09803 5.22162C0 3.10686 0 3.10686 0 0Z" fill="white"/>
<path d="M254.333 99.1667C253.817 102.963 251.951 105.879 249.84 109.122C249.097 110.287 248.353 111.452 247.611 112.617C247.042 113.502 247.042 113.502 246.462 114.405C245.101 116.532 243.766 118.671 242.435 120.812C235.223 132.414 227.868 143.943 220.407 155.416C215.811 162.485 211.267 169.579 206.758 176.694C199.89 187.53 192.972 198.34 186.032 209.14C185.165 210.489 184.3 211.838 183.434 213.186C182.634 214.432 181.833 215.678 181.033 216.923C180.643 217.529 180.253 218.137 179.851 218.762C177.651 222.18 175.439 225.591 173.214 228.996C168.174 236.722 163.189 244.468 158.382 252.315C156.68 255.09 154.963 257.857 153.243 260.624C151.288 263.77 149.388 266.933 147.542 270.131C146.762 271.416 145.98 272.699 145.196 273.982C144.898 274.538 144.599 275.094 144.291 275.667C140.737 281.298 134.082 283.392 127.81 285.951C125.24 287.006 122.697 288.11 120.152 289.215C116.826 290.656 113.486 292.071 110.147 293.489C109.425 293.798 108.703 294.105 107.959 294.422C92.4344 301.029 76.8509 307.522 61.2623 314.005C54.9206 316.644 48.587 319.298 42.2573 321.959C40.6364 322.64 39.0149 323.32 37.3935 323.999C32.4244 326.083 27.4606 328.176 22.5112 330.296C20.1603 331.302 17.8063 332.303 15.4519 333.301C14.3354 333.778 13.2205 334.256 12.1072 334.738C10.5806 335.398 9.04852 336.048 7.51613 336.698C6.64763 337.07 5.77912 337.443 4.88428 337.826C2.69611 338.52 2.69611 338.52 0 337.712C0.622083 336.827 0.622083 336.827 1.25675 335.924C4.78057 330.848 8.14442 325.723 11.3461 320.478C14.8771 314.695 18.5297 308.984 22.2429 303.295C26.6757 296.498 31.0132 289.661 35.2741 282.775C39.0284 276.711 42.8285 270.681 46.7695 264.713C50.3474 259.28 53.8186 253.794 57.2924 248.308C63.8809 237.907 70.5654 227.557 77.2886 217.226C83.7458 207.297 90.1823 197.359 96.5146 187.364C104.705 174.44 112.963 161.552 121.402 148.758C125.171 143.035 128.872 137.278 132.559 131.512C136.945 124.655 141.353 117.81 145.815 110.993C146.297 110.253 146.78 109.513 147.277 108.751C147.725 108.066 148.175 107.382 148.638 106.678C149.222 105.786 149.222 105.786 149.818 104.876C150.395 104.052 150.395 104.052 150.982 103.21C151.369 102.65 151.756 102.091 152.154 101.515C153.678 99.9753 153.678 99.9753 155.516 99.5645C156.579 99.5605 156.579 99.5605 157.663 99.5556C158.886 99.5386 158.886 99.5386 160.134 99.5216C161.025 99.5257 161.918 99.5297 162.837 99.5338C163.779 99.5257 164.72 99.5168 165.69 99.5087C168.809 99.4844 171.928 99.4836 175.047 99.4828C177.211 99.4707 179.374 99.457 181.538 99.4424C187.241 99.4068 192.945 99.3906 198.648 99.3785C204.449 99.3623 210.251 99.3284 216.052 99.296C228.813 99.2281 241.573 99.1667 254.333 99.1667Z" fill="white"/>
</svg>
