<svg width="1057" height="1789" viewBox="0 0 1057 1789" fill="none" xmlns="http://www.w3.org/2000/svg">
<path d="M0 0H1057V1405H0V0Z" fill="black"/>
<g clip-path="url(#clip0_4_2)">
<path d="M302 427C470.63 427 639.26 427 813 427C811.524 431.427 810.308 434.499 808.016 438.394C807.417 439.419 806.819 440.444 806.203 441.5C805.558 442.593 804.914 443.686 804.25 444.812C802.878 447.158 801.511 449.507 800.145 451.855C799.797 452.452 799.449 453.048 799.091 453.663C795.631 459.609 792.279 465.613 788.938 471.625C783.778 480.888 778.499 490.073 773.133 499.218C768.624 506.907 764.193 514.637 759.818 522.403C759.358 523.214 758.899 524.024 758.426 524.859C758.028 525.565 757.63 526.272 757.22 526.999C756.616 527.99 756.616 527.99 756 529C755.612 529.69 755.225 530.38 754.826 531.092C753 533 753 533 750.138 533.515C748.96 533.522 747.782 533.53 746.568 533.537C745.909 533.546 745.25 533.556 744.571 533.565C742.347 533.592 740.125 533.59 737.901 533.589C736.296 533.602 734.692 533.617 733.088 533.633C728.668 533.673 724.247 533.688 719.827 533.699C715.064 533.714 710.301 533.753 705.538 533.788C694.028 533.867 682.519 533.907 671.009 533.943C665.591 533.96 660.172 533.982 654.754 534.003C636.743 534.071 618.733 534.129 600.723 534.158C596.047 534.165 591.372 534.173 586.697 534.181C584.954 534.184 584.954 534.184 583.176 534.187C564.352 534.22 545.529 534.321 526.705 534.451C507.384 534.583 488.063 534.655 468.742 534.668C457.891 534.677 447.042 534.712 436.192 534.814C426.951 534.901 417.712 534.933 408.47 534.894C403.755 534.876 399.043 534.884 394.328 534.961C366.743 535.391 366.743 535.391 360.542 531.43C356.922 527.785 354.933 523.884 353.5 519C352.385 516.578 351.225 513.836 349.637 511.398C348.651 509.725 347.669 508.051 346.688 506.375C345.573 504.48 344.458 502.586 343.344 500.691C342.788 499.745 342.233 498.799 341.66 497.825C339.01 493.316 336.349 488.814 333.688 484.312C333.162 483.423 332.637 482.534 332.096 481.618C327.999 474.686 323.898 467.756 319.795 460.827C318.761 459.081 317.729 457.334 316.696 455.587C313.825 450.735 310.948 445.89 307.984 441.094C307.555 440.396 307.126 439.699 306.685 438.98C305.599 437.223 304.503 435.473 303.406 433.723C302 431 302 431 302 427Z" fill="white"/>
<path d="M628 556C627.338 560.905 624.946 564.672 622.24 568.863C621.288 570.367 620.335 571.873 619.383 573.377C618.654 574.521 618.654 574.521 617.91 575.688C616.166 578.436 614.455 581.199 612.749 583.965C603.505 598.955 594.078 613.85 584.514 628.674C578.623 637.807 572.798 646.972 567.018 656.164C558.215 670.164 549.348 684.13 540.452 698.084C539.342 699.827 538.232 701.569 537.122 703.312C536.097 704.921 535.07 706.531 534.045 708.14C533.545 708.923 533.045 709.708 532.53 710.515C529.71 714.931 526.874 719.338 524.023 723.737C517.562 733.72 511.173 743.727 505.012 753.866C502.83 757.451 500.628 761.026 498.425 764.6C495.918 768.665 493.483 772.751 491.117 776.884C490.117 778.543 489.115 780.201 488.11 781.859C487.728 782.577 487.344 783.296 486.949 784.035C482.394 791.311 473.864 794.017 465.825 797.323C462.53 798.686 459.271 800.113 456.009 801.54C451.746 803.402 447.464 805.23 443.184 807.062C442.259 807.46 441.333 807.857 440.38 808.267C420.481 816.803 400.506 825.192 380.525 833.568C372.396 836.977 364.278 840.406 356.165 843.844C354.087 844.724 352.009 845.603 349.93 846.48C343.561 849.173 337.199 851.876 330.854 854.616C327.841 855.916 324.824 857.209 321.806 858.499C320.375 859.114 318.946 859.733 317.519 860.355C315.562 861.208 313.598 862.048 311.634 862.887C310.521 863.368 309.408 863.85 308.261 864.345C305.456 865.242 305.456 865.242 302 864.197C302.797 863.054 302.797 863.054 303.611 861.887C308.128 855.329 312.439 848.708 316.543 841.931C321.069 834.459 325.751 827.082 330.511 819.731C336.192 810.95 341.752 802.116 347.214 793.22C352.026 785.385 356.897 777.594 361.948 769.883C366.534 762.865 370.984 755.776 375.436 748.689C383.881 735.25 392.449 721.879 401.067 708.531C409.344 695.703 417.594 682.863 425.711 669.95C436.209 653.252 446.794 636.601 457.611 620.072C462.442 612.678 467.186 605.239 471.912 597.789C477.534 588.93 483.183 580.087 488.903 571.279C489.521 570.323 490.14 569.367 490.777 568.382C491.352 567.498 491.928 566.615 492.521 565.705C493.27 564.552 493.27 564.552 494.034 563.377C494.773 562.311 494.773 562.311 495.526 561.224C496.022 560.501 496.518 559.778 497.029 559.034C498.982 557.045 498.982 557.045 501.338 556.514C502.7 556.509 502.7 556.509 504.09 556.503C505.658 556.481 505.658 556.481 507.257 556.459C508.399 556.464 509.543 556.469 510.722 556.474C511.929 556.464 513.135 556.452 514.378 556.442C518.376 556.411 522.374 556.41 526.372 556.408C529.146 556.393 531.919 556.375 534.693 556.356C542.003 556.31 549.313 556.289 556.623 556.274C564.059 556.253 571.496 556.209 578.932 556.167C595.288 556.079 611.644 556 628 556Z" fill="white"/>
</g>
<defs>
<clipPath id="clip0_4_2">
<rect width="511" height="438" fill="white" transform="translate(302 427)"/>
</clipPath>
</defs>
</svg>
